Coordinates
version=1
nRows=16
nColumns=63
inDegrees=yes

Units are S.I. units (second, meters, Newtons, ...)
If the header above contains a line with 'inDegrees', this indicates whether rotational values are in degrees (yes) or radians (no).

endheader
time	pelvis_tilt	pelvis_list	pelvis_rotation	pelvis_tx	pelvis_ty	pelvis_tz	hip_flexion_r	hip_adduction_r	hip_rotation_r	knee_angle_r	knee_angle_r_beta	ankle_angle_r	subtalar_angle_r	mtp_angle_r	hip_flexion_l	hip_adduction_l	hip_rotation_l	knee_angle_l	knee_angle_l_beta	ankle_angle_l	subtalar_angle_l	mtp_angle_l	L5_S1_Flex_Ext	L5_S1_Lat_Bending	L5_S1_axial_rotation	L4_L5_Flex_Ext	L4_L5_Lat_Bending	L4_L5_axial_rotation	L3_L4_Flex_Ext	L3_L4_Lat_Bending	L3_L4_axial_rotation	L2_L3_Flex_Ext	L2_L3_Lat_Bending	L2_L3_axial_rotation	L1_L2_Flex_Ext	L1_L2_Lat_Bending	L1_L2_axial_rotation	L1_T12_Flex_Ext	L1_T12_Lat_Bending	L1_T12_axial_rotation	Abs_r3	Abs_r2	Abs_r1	Abs_t1	Abs_t2	neck_flexion	neck_bending	neck_rotation	arm_flex_r	arm_add_r	arm_rot_r	elbow_flex_r	pro_sup_r	wrist_flex_r	wrist_dev_r	arm_flex_l	arm_add_l	arm_rot_l	elbow_flex_l	pro_sup_l	wrist_flex_l	wrist_dev_l
3.583333	-1.398889	-2.521815	88.405121	0.197296	0.758108	0.900799	5.622806	-0.503659	6.029789	14.614639	0.255074	36.104333	2.703361	0.000000	1.999758	2.339517	7.051341	7.614473	0.132898	34.497804	-10.732119	0.000000	-0.181041	0.005716	2.297747	-0.336212	0.007602	2.441356	-0.297433	0.013898	2.441356	-0.206912	0.013898	2.010529	-0.168115	0.011656	1.866919	-0.103447	0.008854	1.723310	-1.293159	0.064660	12.779379	0.000000	0.000000	11.295346	1.619857	1.798014	-7.018712	-12.537397	-2.896585	60.050964	85.762133	-4.919184	16.522699	17.416671	-13.192613	30.926055	28.989272	81.243933	-43.979547	20.239551
3.600000	-1.538733	-2.502587	88.136290	0.198194	0.758249	0.900599	5.578781	-0.611247	6.201720	14.616352	0.255103	36.061170	2.826821	0.000000	1.943503	2.453568	7.012549	7.641139	0.133363	34.340287	-11.129121	0.000000	-0.188549	-0.037355	2.396203	-0.350155	-0.049683	2.545965	-0.309768	-0.090826	2.545965	-0.215493	-0.090826	2.096677	-0.175087	-0.076175	1.946915	-0.107737	-0.057863	1.797152	-1.346790	-0.422571	13.326960	0.000000	0.000000	10.938124	1.453121	1.518737	-6.772181	-12.452287	-3.413416	59.576110	86.221304	-5.025317	16.099207	17.828937	-12.603167	29.690865	27.105720	78.898940	-44.165567	21.517421
3.616667	-1.701524	-2.467730	87.873728	0.199026	0.758399	0.900215	5.508698	-0.745181	6.411522	14.638173	0.255484	35.981262	2.854464	0.000000	1.840769	2.597708	7.020741	7.626536	0.133108	34.146447	-11.547059	0.000000	-0.195575	-0.084037	2.503144	-0.363202	-0.111769	2.659590	-0.321310	-0.204327	2.659590	-0.223523	-0.204327	2.190251	-0.181611	-0.171367	2.033804	-0.111752	-0.130173	1.877358	-1.396973	-0.950639	13.921735	0.000000	0.000000	10.562474	1.271911	1.228937	-6.630971	-12.366536	-4.000647	59.032335	86.687500	-5.114246	15.890926	18.144557	-12.034277	28.225038	25.447164	76.425605	-44.735066	22.368977
3.633333	-1.866493	-2.420689	87.620684	0.199753	0.758555	0.899648	5.409686	-0.886270	6.663308	14.662184	0.255903	35.868907	2.797358	0.000000	1.694671	2.752602	7.068363	7.567906	0.132085	33.919157	-11.979633	0.000000	-0.201639	-0.130338	2.617040	-0.374464	-0.173350	2.780605	-0.331273	-0.316904	2.780605	-0.230454	-0.316904	2.289910	-0.187242	-0.265786	2.126345	-0.115217	-0.201894	1.962780	-1.440289	-1.474411	14.555191	0.000000	0.000000	10.185415	1.075446	0.941585	-6.613137	-12.295247	-4.625005	58.436928	87.140813	-5.191219	15.896599	18.380238	-11.491952	26.734571	23.995320	74.009301	-45.575092	22.798383
3.650000	-2.005480	-2.359065	87.349315	0.200367	0.758724	0.898937	5.289541	-1.004029	6.980529	14.688661	0.256365	35.732508	2.664708	0.000000	1.511949	2.877223	6.896222	7.479745	0.130546	33.747842	-12.110556	0.000000	-0.207545	-0.171083	2.747660	-0.385431	-0.227540	2.919389	-0.340975	-0.415971	2.919389	-0.237203	-0.415971	2.404202	-0.192726	-0.348873	2.232474	-0.118591	-0.265008	2.060745	-1.482471	-1.935326	15.281659	0.000000	0.000000	9.816512	0.856021	0.650819	-6.741640	-12.263098	-5.281967	57.829875	87.518892	-5.268714	16.139429	18.634841	-10.977888	25.652063	22.647691	71.774225	-46.763691	22.688897
3.666667	-2.125216	-2.300752	87.087737	0.200845	0.758878	0.898066	5.158195	-1.106197	7.353156	14.696585	0.256504	35.600018	2.471071	0.000000	1.300135	2.986964	6.662606	7.338088	0.128074	33.580394	-12.126366	0.000000	-0.210530	-0.207259	2.877768	-0.390975	-0.275654	3.057628	-0.345879	-0.503928	3.057628	-0.240614	-0.503928	2.518047	-0.195498	-0.422642	2.338186	-0.120297	-0.321043	2.158326	-1.503793	-2.344550	16.005281	0.000000	0.000000	9.484027	0.632966	0.369632	-6.970010	-12.268386	-5.872413	57.183853	87.863726	-5.323390	16.530994	18.825613	-10.549465	24.924411	21.559662	69.839193	-48.036325	22.175937
3.683333	-2.206569	-2.249400	86.852187	0.201146	0.759007	0.897071	5.017600	-1.176152	7.755168	14.672727	0.256087	35.482778	2.243371	0.000000	1.072384	3.062298	6.362757	7.155732	0.124891	33.437681	-12.007307	0.000000	-0.210665	-0.235783	2.999647	-0.391227	-0.313591	3.187125	-0.346102	-0.573282	3.187125	-0.240770	-0.573282	2.624691	-0.195624	-0.480808	2.437214	-0.120374	-0.365227	2.249736	-1.504762	-2.667219	16.683139	0.000000	0.000000	9.212292	0.417144	0.122210	-7.282475	-12.320733	-6.356432	56.523434	88.154756	-5.378963	17.003515	18.948897	-10.229835	24.617923	20.795021	68.216059	-49.165425	21.272159
3.700000	-2.256325	-2.203785	86.683382	0.201234	0.759114	0.896000	4.863802	-1.224082	8.104339	14.610004	0.254993	35.391602	2.014533	0.000000	0.836760	3.109865	6.063032	6.939446	0.121116	33.310700	-11.793070	0.000000	-0.208290	-0.257337	3.095476	-0.386816	-0.342258	3.288943	-0.342200	-0.625690	3.288943	-0.238055	-0.625690	2.708541	-0.193418	-0.524762	2.515074	-0.119017	-0.398615	2.321607	-1.487796	-2.911049	17.216107	0.000000	0.000000	8.997162	0.226243	-0.024218	-7.612008	-12.428264	-6.628503	55.826766	88.361425	-5.401595	17.500373	18.982997	-10.020802	24.600980	20.364499	67.013575	-49.946101	19.970576
3.716667	-2.254239	-2.167811	86.532033	0.201217	0.759131	0.894809	4.702579	-1.226124	8.441837	14.510257	0.253252	35.347108	1.828735	0.000000	0.590742	3.105721	5.736244	6.682817	0.116637	33.240755	-11.492437	0.000000	-0.201744	-0.270182	3.165464	-0.374660	-0.359342	3.363306	-0.331446	-0.656921	3.363306	-0.230574	-0.656921	2.769781	-0.187340	-0.550955	2.571940	-0.115277	-0.418512	2.374098	-1.441040	-3.056354	17.605363	0.000000	0.000000	8.871050	0.028151	-0.093853	-7.960546	-12.554971	-6.718631	55.149440	88.498196	-5.454270	17.996821	18.859681	-9.941073	24.792348	20.344867	66.196279	-50.420090	18.273689
3.733333	-2.227930	-2.127153	86.432860	0.201045	0.759073	0.893563	4.521703	-1.221557	8.649050	14.381532	0.251005	35.353019	1.764723	0.000000	0.325696	3.086324	5.538364	6.382586	0.111397	33.188171	-11.265539	0.000000	-0.194367	-0.277616	3.191250	-0.360959	-0.369229	3.390703	-0.319325	-0.674995	3.390703	-0.222142	-0.674995	2.792343	-0.180489	-0.566114	2.592890	-0.111061	-0.430027	2.393437	-1.388343	-3.140446	17.748773	0.000000	0.000000	8.807796	-0.120538	-0.017180	-8.240284	-12.733204	-6.466577	54.431849	88.502436	-5.476167	18.344009	18.514292	-9.998756	24.955965	20.728016	65.948318	-50.420803	16.178338
3.750000	-2.176818	-2.081521	86.406786	0.200757	0.758921	0.892312	4.315407	-1.198485	8.769401	14.219692	0.248180	35.376601	1.721371	0.000000	0.053253	3.041687	5.461857	6.052720	0.105640	33.170275	-11.066616	0.000000	-0.186940	-0.280645	3.174035	-0.347166	-0.373257	3.372412	-0.307123	-0.682359	3.372412	-0.213653	-0.682359	2.777280	-0.173592	-0.572290	2.578903	-0.106817	-0.434718	2.380526	-1.335291	-3.174707	17.653029	0.000000	0.000000	8.816528	-0.226706	0.131203	-8.449565	-12.917303	-5.960587	53.671670	88.431915	-5.378132	18.540479	18.022226	-10.204935	25.413878	21.415084	66.282094	-50.098615	13.883610
3.766667	-2.123394	-2.025664	86.448927	0.200385	0.758665	0.891089	4.083910	-1.179328	8.796054	14.039424	0.245034	35.406860	1.695536	0.000000	-0.229075	2.994174	5.517072	5.695517	0.099406	33.178979	-10.918711	0.000000	-0.180931	-0.282324	3.114587	-0.336008	-0.375491	3.309249	-0.297252	-0.686443	3.309249	-0.206786	-0.686443	2.725264	-0.168013	-0.575716	2.530602	-0.103384	-0.437320	2.335940	-1.292374	-3.193710	17.322400	0.000000	0.000000	8.885515	-0.273559	0.329583	-8.570677	-13.095982	-5.201216	52.859947	88.341902	-5.094034	18.575963	17.379833	-10.551005	26.153211	22.290900	67.243495	-49.415470	11.462640
3.783333	-2.089008	-1.971603	86.577923	0.199968	0.758300	0.889908	3.834150	-1.179223	8.748048	13.834945	0.241465	35.418236	1.621335	0.000000	-0.495596	2.960106	5.663937	5.335119	0.093115	33.222733	-10.759656	0.000000	-0.174057	-0.286386	3.005800	-0.323242	-0.380893	3.193662	-0.285959	-0.696319	3.193662	-0.198930	-0.696319	2.630075	-0.161630	-0.583998	2.442212	-0.099456	-0.443612	2.254350	-1.243274	-3.239655	16.717358	0.000000	0.000000	8.954975	-0.200985	0.620250	-8.556815	-13.261944	-4.121868	51.951726	88.240514	-4.565682	18.541643	16.534211	-11.032862	26.918707	23.254320	68.966692	-48.368646	9.043522
3.800000	-2.064214	-1.907429	86.781235	0.199525	0.757857	0.888813	3.561554	-1.193370	8.571744	13.615466	0.237635	35.419345	1.591846	0.000000	-0.754825	2.931779	5.954922	4.980631	0.086928	33.271498	-10.704368	0.000000	-0.169319	-0.292222	2.865123	-0.314442	-0.388655	3.044193	-0.278174	-0.710508	3.044193	-0.193514	-0.710508	2.506983	-0.157229	-0.595898	2.327912	-0.096749	-0.452651	2.148842	-1.209427	-3.305669	15.934955	0.000000	0.000000	9.016641	-0.012990	0.919183	-8.450381	-13.421394	-2.770734	50.959573	88.097687	-3.839349	18.388820	15.646724	-11.599871	28.294461	24.131090	71.126934	-46.993029	6.908187
3.816667	-2.055182	-1.827915	87.014580	0.199162	0.757363	0.887851	3.276558	-1.221017	8.306269	13.394876	0.233785	35.424605	1.621929	0.000000	-1.010956	2.911331	6.324874	4.638070	0.080950	33.320270	-10.747437	0.000000	-0.169213	-0.301489	2.718310	-0.314245	-0.400981	2.888205	-0.278000	-0.733041	2.888205	-0.193393	-0.733041	2.378522	-0.157131	-0.614797	2.208627	-0.096688	-0.467007	2.038733	-1.208671	-3.410509	15.118427	0.000000	0.000000	9.079502	0.284494	1.130578	-8.305554	-13.541737	-1.277881	49.908810	87.935264	-2.904631	18.115344	14.861391	-12.282535	30.836515	24.784944	73.381159	-44.954470	5.362050
3.833333	-2.072470	-1.747058	87.319002	0.198858	0.756840	0.886966	2.976343	-1.272625	7.926342	13.150591	0.229521	35.438604	1.706623	0.000000	-1.236754	2.910906	6.799265	4.345554	0.075844	33.375126	-10.888446	0.000000	-0.170006	-0.315977	2.552609	-0.315718	-0.420250	2.712147	-0.279303	-0.768268	2.712147	-0.194300	-0.768268	2.233533	-0.157868	-0.644341	2.073995	-0.097142	-0.489449	1.914457	-1.214337	-3.574400	14.196845	0.000000	0.000000	9.072152	0.721181	1.360981	-8.098684	-13.610073	0.401816	48.754728	87.728140	-1.806516	17.744855	14.088261	-13.036053	34.089258	25.234601	75.869877	-42.253678	4.422738
